<?xml version="1.0" standalone="no"?>
<!DOCTYPE svg PUBLIC "-//W3C//DTD SVG 20010904//EN"
 "http://www.w3.org/TR/2001/REC-SVG-20010904/DTD/svg10.dtd">
<svg version="1.0" xmlns="http://www.w3.org/2000/svg"
 width="640.000000pt" height="640.000000pt" viewBox="0 0 640.000000 640.000000"
 preserveAspectRatio="xMidYMid meet">
<metadata>
Created by potrace 1.14, written by Peter Selinger 2001-2017
</metadata>
<g transform="translate(0.000000,640.000000) scale(0.100000,-0.100000)"
fill="#000000" stroke="none">
<path d="M5328 5211 c-74 -50 -137 -98 -140 -108 -7 -32 -3 -1771 4 -1779 8
-7 611 -6 685 1 64 6 163 43 223 82 329 216 339 680 19 904 -32 23 -59 46 -59
50 0 5 70 78 155 163 l155 153 0 197 c0 108 -2 196 -4 196 -2 0 -204 -200
-447 -445 -244 -245 -446 -445 -449 -445 -3 0 -5 252 -5 560 0 308 0 560 -1
560 0 0 -61 -40 -136 -89z m593 -1101 c135 -71 189 -223 126 -352 -29 -60 -63
-96 -120 -127 -52 -29 -88 -34 -269 -34 l-157 0 -18 -45 -19 -45 1 131 0 130
31 34 c17 18 101 101 186 185 149 146 157 152 185 144 17 -5 41 -14 54 -21z"/>
<path d="M1299 5095 c-3 -90 0 -1767 4 -1771 11 -11 1131 -7 1173 4 89 25 164
97 194 186 l13 39 12 -35 c37 -109 113 -174 225 -193 53 -9 268 -9 330 -1 73
11 182 70 234 127 89 99 116 186 116 378 l1 116 20 -38 20 -39 177 5 c97 3
184 7 192 9 159 45 205 74 299 188 36 43 14 -6 -37 -84 l-46 -70 2 -115 c3
-119 15 -178 51 -248 59 -116 188 -208 318 -227 76 -12 402 -11 414 1 8 8 11
255 10 874 -1 475 -4 865 -6 868 -3 2 -65 -36 -138 -85 l-132 -89 -1 -644 c-1
-510 -4 -645 -14 -651 -29 -18 -124 9 -164 46 -56 52 -59 73 -60 381 -1 155
-3 283 -6 286 -8 8 -262 177 -265 177 -2 0 -8 -23 -14 -52 -25 -116 -83 -194
-183 -249 l-63 -34 -185 0 -185 0 -5 97 -5 97 -130 -86 c-71 -47 -133 -91
-137 -97 -4 -6 -8 -100 -8 -209 0 -155 -3 -206 -15 -235 -35 -82 -101 -122
-203 -123 -102 0 -140 12 -197 62 -71 63 -78 95 -80 344 -1 120 -6 220 -11
222 -5 1 -67 -37 -139 -85 l-130 -87 -1 -130 c-2 -135 -13 -180 -56 -235 -31
-39 -99 -79 -148 -86 -56 -9 -748 -9 -756 -1 -4 4 -7 304 -8 668 l-1 662 -130
88 c-71 49 -133 88 -137 89 -5 0 -8 -7 -9 -15z"/>
<path d="M3923 4957 c-42 -23 -67 -68 -68 -117 0 -57 19 -96 57 -112 15 -7 28
-16 28 -19 0 -12 -51 -32 -80 -31 -40 1 -38 -5 11 -27 103 -47 211 32 219 159
6 72 0 92 -34 126 -27 27 -42 34 -72 34 -22 -1 -49 -6 -61 -13z"/>
<path d="M2380 4598 c-102 -21 -201 -41 -220 -44 -19 -3 -43 -7 -52 -10 -10
-3 -29 -7 -43 -10 -30 -5 -51 -9 -125 -24 -30 -6 -66 -13 -80 -15 -14 -3 -35
-7 -47 -9 -49 -10 -79 -33 -100 -76 -32 -66 -30 -74 15 -65 20 4 48 9 62 11
14 3 33 7 42 10 10 3 30 7 45 10 16 3 138 28 273 56 135 27 256 52 270 54 94
16 122 27 141 58 19 31 26 81 12 89 -5 2 -91 -13 -193 -35z"/>
<path d="M2982 4517 c-51 -51 -92 -97 -92 -102 0 -13 172 -185 185 -185 6 0
52 42 103 93 l93 93 -84 85 c-45 46 -90 89 -98 96 -13 10 -30 -3 -107 -80z"/>
<path d="M496 4298 c-53 -53 -96 -98 -96 -101 0 -10 183 -187 194 -187 13 0
186 173 186 186 0 5 -43 52 -94 103 l-95 95 -95 -96z"/>
<path d="M1005 4130 c-66 -44 -125 -87 -132 -96 -8 -12 -11 -100 -11 -318 1
-359 -2 -378 -87 -463 -41 -40 -65 -55 -110 -69 -149 -43 -295 28 -364 176
-22 47 -26 69 -26 145 1 76 5 99 28 147 25 55 88 127 152 176 l30 23 -60 -6
c-137 -12 -230 -65 -302 -173 -122 -182 -111 -402 30 -600 150 -210 532 -247
767 -75 120 88 201 233 215 384 11 122 9 829 -2 829 -5 -1 -62 -37 -128 -80z"/>
<path d="M3814 3610 c-49 -50 -89 -94 -88 -97 0 -4 43 -48 94 -100 l94 -94 93
93 c51 51 93 97 93 103 0 14 -172 185 -186 185 -6 0 -51 -41 -100 -90z"/>
<path d="M6165 3313 c-72 -47 -132 -90 -135 -94 -4 -6 -5 -968 -1 -991 0 -3
20 -6 44 -6 55 0 136 -31 187 -72 l40 -32 0 641 c0 353 -1 641 -3 641 -1 0
-61 -39 -132 -87z"/>
<path d="M2180 3195 c-46 -47 -89 -85 -94 -85 -5 0 -45 36 -88 80 -44 44 -85
80 -91 80 -13 0 -187 -174 -187 -187 0 -5 43 -52 96 -103 l95 -94 74 75 c111
114 97 110 159 48 29 -30 69 -69 88 -87 l35 -33 84 84 c46 46 89 90 96 98 10
13 -4 32 -85 112 l-97 97 -85 -85z"/>
<path d="M5752 3066 c-68 -46 -128 -89 -133 -97 -5 -8 -8 -196 -8 -418 0 -222
-2 -405 -5 -408 -3 -3 -34 8 -69 25 -100 46 -153 111 -213 255 -17 43 -34 80
-37 83 -7 7 -266 -153 -289 -179 -17 -18 -17 -21 2 -57 11 -21 31 -78 46 -127
75 -256 5 -593 -159 -765 -99 -104 -197 -155 -357 -185 -13 -2 -26 -6 -28 -7
-3 -3 105 -49 123 -52 6 -1 30 -7 53 -12 64 -15 213 -12 277 4 59 16 109 41
163 81 109 82 206 260 228 420 10 74 8 224 -5 268 -18 65 -14 66 41 13 54 -53
128 -93 186 -102 19 -2 36 -7 38 -9 3 -2 5 -61 5 -130 0 -83 4 -129 11 -133
15 -9 449 -7 491 2 87 18 163 79 209 167 32 59 32 191 2 258 -31 66 -78 115
-142 145 -50 24 -70 28 -157 28 l-99 1 -18 -45 c-16 -44 -17 -28 -17 508 -1
303 -4 552 -8 551 -5 0 -64 -37 -131 -83z m354 -1194 c19 -3 23 -39 7 -61 -13
-19 -24 -21 -119 -21 l-104 0 0 38 c0 21 2 41 5 44 4 4 181 4 211 0z"/>
<path d="M3555 3023 c-60 -15 -95 -67 -95 -141 0 -41 5 -55 29 -81 16 -17 37
-31 47 -31 32 0 -1 -22 -53 -35 l-48 -12 32 -17 c118 -60 245 54 231 206 -5
45 -11 57 -41 83 -34 30 -62 37 -102 28z"/>
<path d="M1125 2554 c-60 -41 -118 -82 -127 -89 -17 -14 -18 -46 -18 -420 0
-402 0 -405 -23 -457 -33 -74 -111 -142 -191 -167 -80 -26 -203 -22 -269 7
-99 44 -175 144 -198 262 -34 174 53 350 221 448 39 22 49 32 35 33 -11 1 -33
2 -50 4 -16 1 -59 -4 -93 -11 -234 -48 -388 -251 -381 -499 8 -256 165 -451
429 -532 215 -66 495 -7 641 136 58 57 122 160 134 218 3 18 14 34 23 37 9 3
132 5 272 4 212 -1 267 2 325 17 146 37 247 104 321 217 130 195 131 431 4
618 -109 161 -292 244 -520 236 -114 -5 -153 -16 -217 -61 -26 -19 -77 -55
-113 -80 l-65 -45 -3 100 c-2 71 -6 100 -15 99 -7 0 -61 -34 -122 -75z m691
-232 c69 -24 116 -65 150 -131 71 -138 6 -305 -142 -367 -30 -13 -82 -16 -283
-15 -135 0 -254 0 -263 0 -17 1 -18 20 -18 259 0 142 3 262 7 265 3 4 117 7
252 7 209 -1 254 -3 297 -18z"/>
<path d="M2772 2604 c-86 -20 -163 -63 -227 -128 -50 -51 -113 -150 -121 -191
-2 -5 -7 -31 -12 -57 -14 -72 -8 -274 11 -338 48 -165 203 -312 366 -349 24
-5 86 -9 140 -9 110 -1 108 2 63 -90 -69 -142 -238 -247 -402 -251 -33 -1 -33
-2 -14 -15 73 -51 270 -80 378 -56 164 36 288 162 333 336 l19 69 526 2 c316
1 550 6 585 12 172 32 339 174 401 343 28 76 32 99 33 189 0 159 -57 289 -175
402 -48 45 -164 111 -213 122 -13 3 -33 8 -45 11 -13 3 -88 7 -168 9 l-144 4
-127 -95 c-69 -52 -130 -94 -135 -94 -6 0 -9 30 -9 68 1 37 0 72 -3 79 -4 14
-240 -138 -262 -169 -12 -17 -14 -70 -13 -309 l2 -289 -32 -1 c-18 0 -59 -1
-92 -1 -34 -1 -66 1 -72 5 -7 4 -11 75 -11 204 -1 171 -4 207 -22 265 -73 236
-319 378 -558 322z m213 -302 c22 -15 51 -47 64 -71 23 -41 24 -53 25 -228 1
-148 -1 -186 -12 -191 -7 -2 -55 -5 -105 -5 -107 -1 -163 19 -215 74 -44 46
-60 105 -58 219 1 84 4 100 28 142 57 96 182 124 273 60z m1439 8 c165 -84
200 -298 69 -425 -38 -37 -81 -62 -123 -70 -36 -8 -519 -9 -526 -2 -5 5 -9
429 -5 510 1 17 16 18 269 15 262 -3 268 -3 316 -28z"/>
</g>
</svg>
